<svg width="1246" height="672" viewBox="0 0 1246 672" fill="none" xmlns="http://www.w3.org/2000/svg">
<mask id="mask0_36_2645" style="mask-type:alpha" maskUnits="userSpaceOnUse" x="0" y="0" width="1246" height="672">
<rect width="1246" height="672" fill="#0E0E0E"/>
</mask>
<g mask="url(#mask0_36_2645)">
<g opacity="0.5">
<g clip-path="url(#clip0_36_2645)">
<path d="M407.218 704.888L192.157 573.465C183.585 513.414 175.003 453.357 167.351 393.141C196.069 394.759 223.32 396.296 252.03 397.917L256.044 423.687L407.216 704.88L407.218 704.888Z" fill="#0F0F0F"/>
<path d="M167.353 393.15L192.15 573.476L407.218 704.888L253.853 561.618L167.353 393.15Z" fill="#0E0E0E"/>
<path d="M106.378 455.533C98.6893 463.517 88.8118 473.818 81.1226 481.801C76.7277 486.369 72.2492 491.032 69.4676 496.734C66.6861 502.437 65.8084 509.443 68.7525 515.069C71.4656 520.274 77.0359 523.52 82.761 524.765C88.4862 526.011 94.4368 525.519 100.264 524.905C127.349 522.058 156.803 516.171 182.917 508.445L189.121 560.473C165.979 568.096 141.272 569.777 116.915 569.268C102.324 568.968 87.3643 567.801 74.1185 561.663C60.8728 555.526 49.5159 543.442 47.9406 528.91C46.2388 513.228 55.9557 498.459 67.5594 487.814C79.1631 477.169 95.6142 467.038 106.378 455.533Z" fill="#0F0F0F"/>
<path d="M407.218 704.888L500.508 402.014L428.363 326.137L376.284 429.896L407.218 704.888Z" fill="#0F0F0F"/>
<path d="M428.363 326.137L500.508 402.014L424.335 448.222L428.363 326.137Z" fill="#0E0E0E"/>
<path d="M238.131 166.957L255.001 423.119L407.218 704.888L357.537 268.114L238.131 166.957Z" fill="#0F0F0F"/>
<path d="M424.335 448.222L407.218 704.889L500.509 402.014L424.335 448.222Z" fill="#0E0E0E"/>
<path d="M357.537 268.114L343.804 457.708L403.895 675.726L357.537 268.114Z" fill="#0E0E0E"/>
<path d="M238.131 166.957L255.001 423.119L407.218 704.888L357.537 268.114L238.131 166.957Z" stroke="#222222" stroke-width="5" stroke-linecap="round" stroke-linejoin="round"/>
<path d="M407.218 704.888L192.157 573.465C183.585 513.414 175.003 453.357 167.351 393.141C196.069 394.759 223.32 396.296 252.03 397.917" stroke="#222222" stroke-width="5" stroke-linecap="round" stroke-linejoin="round"/>
<path d="M192.482 572.339C213.375 568.637 234.275 564.932 253.853 561.618C262.439 532.28 271.835 503.181 282.015 474.364" stroke="#222222" stroke-width="5" stroke-linecap="round" stroke-linejoin="round"/>
<path d="M169.581 395.186C197.34 450.297 225.099 505.407 251.443 558.327C302.418 606.36 356.243 656.855 407.209 704.891" stroke="#222222" stroke-width="5" stroke-linecap="round" stroke-linejoin="round"/>
<path d="M357.537 268.114C352.931 331.751 348.264 394.784 343.796 457.71C314.39 446.945 283.679 435.682 254.992 423.121" stroke="#222222" stroke-width="5" stroke-linecap="round" stroke-linejoin="round"/>
<path d="M343.804 457.708C369.201 537.9 390.307 618.604 406.04 701.24" stroke="#222222" stroke-width="5" stroke-linecap="round" stroke-linejoin="round"/>
<path d="M497.967 404.235C471.555 418.146 448.516 430.698 424.335 448.222L377.574 430.097" stroke="#222222" stroke-width="5" stroke-linecap="round" stroke-linejoin="round"/>
<path d="M407.218 704.888C416.862 579.367 425.727 454.537 428.974 328.689" stroke="#222222" stroke-width="5" stroke-linecap="round" stroke-linejoin="round"/>
<path d="M372.372 720.34C355.712 720.393 339.054 720.456 322.394 720.509C313.574 720.54 303.334 719.885 298.204 712.684C294.664 707.719 294.787 700.815 297.165 695.202C299.544 689.589 303.843 685.038 308.329 680.911C334.217 657.071 368.039 643.771 401.96 634.472C435.882 625.173 470.786 619.338 504.005 607.795C524.789 600.567 546.314 589.724 556.003 569.932C566.569 548.357 559.249 520.666 541.981 503.96C524.712 487.255 500.624 480.351 476.694 482.015L462.836 527.135C471.173 524.792 501.534 520.63 514.229 538.898C523.449 552.165 519.112 563.296 508.324 575.29C497.537 587.284 481.671 593.084 466.502 598.534C406.638 620.033 349.9 635.455 292.536 662.963C276.698 670.56 255.817 687.3 255.803 706.285C255.79 719.165 264.288 731.167 276.079 736.318C287.869 741.47 301.44 740.813 313.949 737.853C326.457 734.893 338.342 729.777 350.666 726.129L372.37 720.331L372.372 720.34Z" fill="url(#paint0_linear_36_2645)"/>
<path d="M299.241 537.601C319.851 567.152 339.092 597.663 356.878 628.992" stroke="#222222" stroke-width="5" stroke-linecap="round" stroke-linejoin="round"/>
<path d="M193.977 414.638C209.111 440.618 224.246 466.597 239.379 492.568" stroke="#222222" stroke-width="5" stroke-linecap="round" stroke-linejoin="round"/>
<path d="M282.222 434.487C297.515 461.363 312.802 488.249 328.095 515.125" stroke="#222222" stroke-width="5" stroke-linecap="round" stroke-linejoin="round"/>
<path d="M400.125 291.905C394.19 251.331 388.247 210.76 382.31 170.178L411.558 121.79L440.299 166.213L400.122 291.896L400.125 291.905Z" fill="#0F0F0F"/>
<path d="M431.159 627.159L407.218 704.888" stroke="#222222" stroke-width="5" stroke-linecap="round" stroke-linejoin="round"/>
<path d="M376.284 429.896L428.363 326.137L500.508 402.014L436.79 608.883" stroke="#222222" stroke-width="5" stroke-linecap="round" stroke-linejoin="round"/>
<path d="M440.301 166.221C440.301 166.221 419.533 186.503 410.178 190.814L400.532 287.148L440.295 166.232L440.301 166.221Z" fill="#0E0E0E"/>
<path d="M220.956 355.204C197.55 350.066 174.73 342.266 153.067 331.996L102.18 186.873L215.211 284.426L220.964 355.201L220.956 355.204Z" fill="#0F0F0F"/>
<path d="M439.126 572.034C448.789 534.025 460.124 496.451 473.072 459.439" stroke="#0F0F0F" stroke-width="5" stroke-linecap="round" stroke-linejoin="round"/>
<path d="M264.748 205.861C294.698 230.295 326.718 255.842 356.665 280.267" stroke="#222222" stroke-width="5" stroke-linecap="round" stroke-linejoin="round"/>
<path d="M316.095 263.19C329.706 272.182 341.763 281.891 355.416 290.872" stroke="#222222" stroke-width="5" stroke-linecap="round" stroke-linejoin="round"/>
<path d="M102.18 186.873L173.795 294.02L215.202 284.428L102.18 186.873Z" fill="url(#paint1_linear_36_2645)"/>
<path d="M400.125 291.905C394.19 251.331 388.247 210.76 382.31 170.178L411.558 121.79L440.299 166.213L400.122 291.896L400.125 291.905Z" stroke="#222222" stroke-width="5" stroke-linecap="round" stroke-linejoin="round"/>
<path d="M382.698 170.475C391.147 177.168 399.596 183.862 410.178 190.814C421.363 184.818 431.339 176.578 439.342 166.715" stroke="#222222" stroke-width="5" stroke-linecap="round" stroke-linejoin="round"/>
<path d="M410.177 190.814C407.355 224.494 402.948 257.96 400.118 291.642" stroke="#222222" stroke-width="5" stroke-linecap="round" stroke-linejoin="round"/>
<path d="M220.956 355.204C197.55 350.066 174.73 342.266 153.067 331.996L102.18 186.873L215.211 284.426L220.964 355.201L220.956 355.204Z" stroke="#222222" stroke-width="5" stroke-linecap="round" stroke-linejoin="round"/>
<path d="M155.233 330.987C160.883 318.785 167.198 306.895 173.795 294.02C187.827 292.301 201.43 287.626 215.204 284.437" stroke="#222222" stroke-width="5" stroke-linecap="round" stroke-linejoin="round"/>
<path d="M105.752 191.246C128.068 225.298 150.385 259.35 172.704 293.41" stroke="#222222" stroke-width="5" stroke-linecap="round" stroke-linejoin="round"/>
<path d="M53.9193 395.851C68.1293 394.085 82.8855 392.354 96.5146 396.767C110.152 401.177 122.348 413.574 121.653 427.912C121.084 439.738 112.386 449.349 104.184 457.862C96.4949 465.845 88.7972 473.831 81.1081 481.814C76.7131 486.382 72.2346 491.045 69.4531 496.747C66.6715 502.45 65.7939 509.456 68.738 515.082C71.451 520.287 77.0213 523.533 82.7465 524.778C88.4716 526.024 94.4223 525.532 100.249 524.918C127.335 522.071 156.788 516.184 182.903 508.458" stroke="#222222" stroke-width="5" stroke-linecap="round" stroke-linejoin="round"/>
<path d="M108.556 453.209C97.7896 464.706 79.1608 477.16 67.5572 487.806C55.9535 498.451 46.2366 513.22 47.9384 528.902C49.516 543.442 60.8705 555.517 74.1163 561.655C87.362 567.792 102.322 568.96 116.913 569.26C141.278 569.766 165.977 568.087 189.119 560.465" stroke="#222222" stroke-width="5" stroke-linecap="round" stroke-linejoin="round"/>
<path d="M130.674 439.455C132.723 447.545 130.049 456.262 125.371 463.165C120.693 470.069 114.177 475.478 107.711 480.728C101.244 485.978 94.6476 491.254 89.7343 497.992C87.366 501.233 85.3557 505.098 85.8533 509.093C86.3571 513.076 88.9487 515.827 94.2083 515.538" stroke="#222222" stroke-width="5" stroke-linecap="round" stroke-linejoin="round"/>
<path d="M476.697 482.023C500.632 480.348 524.721 487.253 541.983 503.969C559.252 520.674 566.563 548.367 556.006 569.941C546.316 589.732 524.792 600.576 504.008 607.803C470.779 619.349 435.884 625.182 401.963 634.481C368.041 643.779 334.221 657.088 308.331 680.92C303.854 685.045 299.546 689.598 297.168 695.211C294.789 700.823 294.666 707.727 298.206 712.693C303.336 719.893 313.568 720.55 322.396 720.518C339.056 720.464 355.714 720.402 372.374 720.348C380.14 720.318 389.186 720.928 393.609 727.325C397.602 733.099 395.689 741.466 390.94 746.611C386.193 751.765 379.309 754.339 372.555 756.176C365.803 758.022 356.217 760.043 350.071 763.403" stroke="#222222" stroke-width="5" stroke-linecap="round" stroke-linejoin="round"/>
<path d="M519.596 341.832C515.609 326.954 500.339 318.114 485.494 322.092C500.339 318.114 509.144 302.825 505.157 287.946C509.144 302.825 524.414 311.664 539.259 307.686C524.414 311.664 515.609 326.954 519.596 341.832Z" fill="#0F0F0F"/>
<path d="M516.401 696.947C512.415 682.068 497.145 673.229 482.3 677.207C497.145 673.229 505.949 657.939 501.963 643.061C505.949 657.939 521.219 666.778 536.064 662.801C521.219 666.778 512.415 682.068 516.401 696.947Z" fill="#0F0F0F"/>
<path d="M188.938 690.731C184.951 675.853 169.682 667.013 154.837 670.991C169.682 667.013 178.486 651.724 174.499 636.845C178.486 651.724 193.756 660.563 208.601 656.585C193.756 660.563 184.951 675.853 188.938 690.731Z" fill="#0F0F0F"/>
<path d="M462.838 527.144C471.175 524.801 501.536 520.639 514.232 538.906C523.451 552.174 519.114 563.305 508.327 575.299C497.539 587.293 481.673 593.093 466.504 598.542C406.64 620.042 349.902 635.463 292.539 662.971C276.7 670.569 255.819 687.309 255.805 706.294C255.792 719.173 264.291 731.175 276.081 736.327C287.872 741.478 301.443 740.821 313.951 737.862C326.459 734.902 338.344 729.785 350.668 726.137C362.992 722.489 373.69 718.847 386.162 721.994" stroke="#222222" stroke-width="5" stroke-linecap="round" stroke-linejoin="round"/>
<path d="M340.299 665.857C329.841 671.074 317.705 680.65 311.664 690.679C309.192 694.786 307.149 699.58 308.193 704.258C308.962 707.706 312.286 712.036 321.108 711.331" stroke="#222222" stroke-width="5" stroke-linecap="round" stroke-linejoin="round"/>
<path d="M519.596 341.832C515.609 326.954 500.339 318.114 485.494 322.092C500.339 318.114 509.144 302.825 505.157 287.946C509.144 302.825 524.414 311.664 539.259 307.686C524.414 311.664 515.609 326.954 519.596 341.832Z" stroke="#222222" stroke-width="5" stroke-linecap="round" stroke-linejoin="round"/>
<path d="M516.401 696.947C512.415 682.068 497.145 673.229 482.3 677.207C497.145 673.229 505.949 657.939 501.963 643.061C505.949 657.939 521.219 666.778 536.064 662.801C521.219 666.778 512.415 682.068 516.401 696.947Z" stroke="#222222" stroke-width="5" stroke-linecap="round" stroke-linejoin="round"/>
<path d="M188.938 690.731C184.951 675.853 169.682 667.013 154.837 670.991C169.682 667.013 178.486 651.724 174.499 636.845C178.486 651.724 193.756 660.563 208.601 656.585C193.756 660.563 184.951 675.853 188.938 690.731V690.731Z" stroke="#222222" stroke-width="5" stroke-linecap="round" stroke-linejoin="round"/>
<path d="M460.645 630.457C484.657 626.183 508.991 621.276 530.469 609.716C551.947 598.156 574.658 579.496 570.552 548.492" stroke="#222222" stroke-width="5" stroke-linecap="round" stroke-linejoin="round"/>
<path d="M56.0981 564.852C84.3192 578.695 117.237 582.651 147.898 575.875" stroke="#222222" stroke-width="5" stroke-linecap="round" stroke-linejoin="round"/>
</g>
<g clip-path="url(#clip1_36_2645)">
<path d="M862.457 704.888L1077.52 573.465C1086.09 513.414 1094.67 453.357 1102.32 393.141C1073.61 394.759 1046.35 396.296 1017.64 397.917L1013.63 423.687L862.459 704.88L862.457 704.888Z" fill="#0F0F0F"/>
<path d="M1102.32 393.15L1077.52 573.476L862.457 704.888L1015.82 561.618L1102.32 393.15Z" fill="#0E0E0E"/>
<path d="M1163.3 455.533C1170.99 463.517 1180.86 473.818 1188.55 481.801C1192.95 486.369 1197.43 491.032 1200.21 496.734C1202.99 502.437 1203.87 509.443 1200.92 515.069C1198.21 520.274 1192.64 523.52 1186.91 524.765C1181.19 526.011 1175.24 525.519 1169.41 524.905C1142.33 522.058 1112.87 516.171 1086.76 508.445L1080.55 560.473C1103.7 568.096 1128.4 569.777 1152.76 569.268C1167.35 568.968 1182.31 567.801 1195.56 561.663C1208.8 555.526 1220.16 543.442 1221.73 528.91C1223.44 513.228 1213.72 498.459 1202.12 487.814C1190.51 477.169 1174.06 467.038 1163.3 455.533Z" fill="#0F0F0F"/>
<path d="M862.457 704.888L769.167 402.014L841.312 326.137L893.391 429.896L862.457 704.888Z" fill="#0F0F0F"/>
<path d="M841.312 326.137L769.167 402.014L845.34 448.222L841.312 326.137Z" fill="#0E0E0E"/>
<path d="M1031.54 166.957L1014.67 423.119L862.457 704.888L912.138 268.114L1031.54 166.957Z" fill="#0F0F0F"/>
<path d="M845.34 448.222L862.457 704.889L769.166 402.014L845.34 448.222Z" fill="#0E0E0E"/>
<path d="M912.138 268.114L925.871 457.708L865.78 675.726L912.138 268.114Z" fill="#0E0E0E"/>
<path d="M1031.54 166.957L1014.67 423.119L862.457 704.888L912.138 268.114L1031.54 166.957Z" stroke="#222222" stroke-width="5" stroke-linecap="round" stroke-linejoin="round"/>
<path d="M862.457 704.888L1077.52 573.465C1086.09 513.414 1094.67 453.357 1102.32 393.141C1073.61 394.759 1046.35 396.296 1017.64 397.917" stroke="#222222" stroke-width="5" stroke-linecap="round" stroke-linejoin="round"/>
<path d="M1077.19 572.339C1056.3 568.637 1035.4 564.932 1015.82 561.618C1007.24 532.28 997.84 503.181 987.66 474.364" stroke="#222222" stroke-width="5" stroke-linecap="round" stroke-linejoin="round"/>
<path d="M1100.09 395.186C1072.34 450.297 1044.58 505.407 1018.23 558.327C967.257 606.36 913.432 656.855 862.466 704.891" stroke="#222222" stroke-width="5" stroke-linecap="round" stroke-linejoin="round"/>
<path d="M912.138 268.114C916.743 331.751 921.41 394.784 925.879 457.71C955.285 446.945 985.996 435.682 1014.68 423.121" stroke="#222222" stroke-width="5" stroke-linecap="round" stroke-linejoin="round"/>
<path d="M925.871 457.708C900.474 537.9 879.367 618.604 863.635 701.24" stroke="#222222" stroke-width="5" stroke-linecap="round" stroke-linejoin="round"/>
<path d="M771.708 404.235C798.12 418.146 821.159 430.698 845.34 448.222L892.101 430.097" stroke="#222222" stroke-width="5" stroke-linecap="round" stroke-linejoin="round"/>
<path d="M862.457 704.888C852.813 579.367 843.947 454.537 840.701 328.689" stroke="#222222" stroke-width="5" stroke-linecap="round" stroke-linejoin="round"/>
<path d="M897.303 720.34C913.963 720.393 930.621 720.456 947.281 720.509C956.101 720.54 966.341 719.885 971.471 712.684C975.011 707.719 974.888 700.815 972.509 695.202C970.131 689.589 965.832 685.038 961.346 680.911C935.458 657.071 901.636 643.771 867.715 634.472C833.793 625.173 798.889 619.338 765.669 607.795C744.886 600.567 723.361 589.724 713.672 569.932C703.106 548.357 710.425 520.666 727.694 503.96C744.962 487.255 769.051 480.351 792.98 482.015L806.839 527.135C798.502 524.792 768.141 520.63 755.445 538.898C746.226 552.165 750.563 563.296 761.35 575.29C772.138 587.284 788.004 593.084 803.173 598.534C863.037 620.033 919.775 635.455 977.138 662.963C992.977 670.56 1013.86 687.3 1013.87 706.285C1013.88 719.165 1005.39 731.167 993.596 736.318C981.805 741.47 968.234 740.813 955.726 737.853C943.218 734.893 931.333 729.777 919.009 726.129L897.305 720.331L897.303 720.34Z" fill="url(#paint2_linear_36_2645)"/>
<path d="M970.434 537.601C949.824 567.152 930.583 597.663 912.797 628.992" stroke="#222222" stroke-width="5" stroke-linecap="round" stroke-linejoin="round"/>
<path d="M1075.7 414.638C1060.56 440.618 1045.43 466.597 1030.3 492.568" stroke="#222222" stroke-width="5" stroke-linecap="round" stroke-linejoin="round"/>
<path d="M987.453 434.487C972.16 461.363 956.873 488.249 941.58 515.125" stroke="#222222" stroke-width="5" stroke-linecap="round" stroke-linejoin="round"/>
<path d="M869.55 291.905C875.485 251.331 881.428 210.76 887.365 170.178L858.117 121.79L829.376 166.213L869.553 291.896L869.55 291.905Z" fill="#0F0F0F"/>
<path d="M838.516 627.159L862.457 704.888" stroke="#222222" stroke-width="5" stroke-linecap="round" stroke-linejoin="round"/>
<path d="M893.391 429.896L841.312 326.137L769.167 402.014L832.885 608.883" stroke="#222222" stroke-width="5" stroke-linecap="round" stroke-linejoin="round"/>
<path d="M829.374 166.221C829.374 166.221 850.142 186.503 859.497 190.814L869.143 287.148L829.38 166.232L829.374 166.221Z" fill="#0E0E0E"/>
<path d="M1048.72 355.204C1072.13 350.066 1094.94 342.266 1116.61 331.996L1167.49 186.873L1054.46 284.426L1048.71 355.201L1048.72 355.204Z" fill="#0F0F0F"/>
<path d="M830.548 572.034C820.885 534.025 809.551 496.451 796.602 459.439" stroke="#0F0F0F" stroke-width="5" stroke-linecap="round" stroke-linejoin="round"/>
<path d="M1004.93 205.861C974.977 230.295 942.957 255.842 913.009 280.267" stroke="#222222" stroke-width="5" stroke-linecap="round" stroke-linejoin="round"/>
<path d="M953.58 263.19C939.969 272.182 927.912 281.891 914.259 290.872" stroke="#222222" stroke-width="5" stroke-linecap="round" stroke-linejoin="round"/>
<path d="M1167.49 186.873L1095.88 294.02L1054.47 284.428L1167.49 186.873Z" fill="url(#paint3_linear_36_2645)"/>
<path d="M869.55 291.905C875.485 251.331 881.428 210.76 887.365 170.178L858.117 121.79L829.376 166.213L869.553 291.896L869.55 291.905Z" stroke="#222222" stroke-width="5" stroke-linecap="round" stroke-linejoin="round"/>
<path d="M886.977 170.475C878.528 177.168 870.079 183.862 859.497 190.814C848.311 184.818 838.336 176.578 830.332 166.715" stroke="#222222" stroke-width="5" stroke-linecap="round" stroke-linejoin="round"/>
<path d="M859.497 190.814C862.32 224.494 866.726 257.96 869.557 291.642" stroke="#222222" stroke-width="5" stroke-linecap="round" stroke-linejoin="round"/>
<path d="M1048.72 355.204C1072.13 350.066 1094.94 342.266 1116.61 331.996L1167.49 186.873L1054.46 284.426L1048.71 355.201L1048.72 355.204Z" stroke="#222222" stroke-width="5" stroke-linecap="round" stroke-linejoin="round"/>
<path d="M1114.44 330.987C1108.79 318.785 1102.48 306.895 1095.88 294.02C1081.85 292.301 1068.24 287.626 1054.47 284.437" stroke="#222222" stroke-width="5" stroke-linecap="round" stroke-linejoin="round"/>
<path d="M1163.92 191.246C1141.61 225.298 1119.29 259.35 1096.97 293.41" stroke="#222222" stroke-width="5" stroke-linecap="round" stroke-linejoin="round"/>
<path d="M1215.76 395.851C1201.55 394.085 1186.79 392.354 1173.16 396.767C1159.52 401.177 1147.33 413.574 1148.02 427.912C1148.59 439.738 1157.29 449.349 1165.49 457.862C1173.18 465.845 1180.88 473.831 1188.57 481.814C1192.96 486.382 1197.44 491.045 1200.22 496.747C1203 502.45 1203.88 509.456 1200.94 515.082C1198.22 520.287 1192.65 523.533 1186.93 524.778C1181.2 526.024 1175.25 525.532 1169.43 524.918C1142.34 522.071 1112.89 516.184 1086.77 508.458" stroke="#222222" stroke-width="5" stroke-linecap="round" stroke-linejoin="round"/>
<path d="M1161.12 453.209C1171.89 464.706 1190.51 477.16 1202.12 487.806C1213.72 498.451 1223.44 513.22 1221.74 528.902C1220.16 543.442 1208.8 555.517 1195.56 561.655C1182.31 567.792 1167.35 568.96 1152.76 569.26C1128.4 569.766 1103.7 568.087 1080.56 560.465" stroke="#222222" stroke-width="5" stroke-linecap="round" stroke-linejoin="round"/>
<path d="M1139 439.455C1136.95 447.545 1139.63 456.262 1144.3 463.165C1148.98 470.069 1155.5 475.478 1161.96 480.728C1168.43 485.978 1175.03 491.254 1179.94 497.992C1182.31 501.233 1184.32 505.098 1183.82 509.093C1183.32 513.076 1180.73 515.827 1175.47 515.538" stroke="#222222" stroke-width="5" stroke-linecap="round" stroke-linejoin="round"/>
<path d="M792.978 482.023C769.042 480.348 744.954 487.253 727.691 503.969C710.423 520.674 703.112 548.367 713.669 569.941C723.359 589.732 744.883 600.576 765.667 607.803C798.895 619.349 833.791 625.182 867.712 634.481C901.634 643.779 935.453 657.088 961.344 680.92C965.821 685.045 970.129 689.598 972.507 695.211C974.885 700.823 975.008 707.727 971.469 712.693C966.339 719.893 956.107 720.55 947.279 720.518C930.619 720.464 913.961 720.402 897.301 720.348C889.535 720.318 880.489 720.928 876.065 727.325C872.073 733.099 873.986 741.466 878.735 746.611C883.482 751.765 890.366 754.339 897.12 756.176C903.871 758.022 913.458 760.043 919.604 763.403" stroke="#222222" stroke-width="5" stroke-linecap="round" stroke-linejoin="round"/>
<path d="M750.079 341.832C754.066 326.954 769.336 318.114 784.18 322.092C769.336 318.114 760.531 302.825 764.518 287.946C760.531 302.825 745.261 311.664 730.416 307.686C745.261 311.664 754.066 326.954 750.079 341.832Z" fill="#0F0F0F"/>
<path d="M753.273 696.947C757.26 682.068 772.53 673.229 787.375 677.207C772.53 673.229 763.725 657.939 767.712 643.061C763.725 657.939 748.456 666.778 733.611 662.801C748.456 666.778 757.26 682.068 753.273 696.947Z" fill="#0F0F0F"/>
<path d="M1080.74 690.731C1084.72 675.853 1099.99 667.013 1114.84 670.991C1099.99 667.013 1091.19 651.724 1095.18 636.845C1091.19 651.724 1075.92 660.563 1061.07 656.585C1075.92 660.563 1084.72 675.853 1080.74 690.731Z" fill="#0F0F0F"/>
<path d="M806.836 527.144C798.5 524.801 768.139 520.639 755.443 538.906C746.224 552.174 750.56 563.305 761.348 575.299C772.136 587.293 788.002 593.093 803.17 598.542C863.035 620.042 919.773 635.463 977.136 662.971C992.975 670.569 1013.86 687.309 1013.87 706.294C1013.88 719.173 1005.38 731.175 993.594 736.327C981.803 741.478 968.232 740.821 955.724 737.862C943.215 734.902 931.33 729.785 919.007 726.137C906.683 722.489 895.984 718.847 883.513 721.994" stroke="#222222" stroke-width="5" stroke-linecap="round" stroke-linejoin="round"/>
<path d="M929.376 665.857C939.834 671.074 951.97 680.65 958.01 690.679C960.483 694.786 962.526 699.58 961.482 704.258C960.713 707.706 957.388 712.036 948.567 711.331" stroke="#222222" stroke-width="5" stroke-linecap="round" stroke-linejoin="round"/>
<path d="M750.079 341.832C754.066 326.954 769.336 318.114 784.18 322.092C769.336 318.114 760.531 302.825 764.518 287.946C760.531 302.825 745.261 311.664 730.416 307.686C745.261 311.664 754.066 326.954 750.079 341.832Z" stroke="#222222" stroke-width="5" stroke-linecap="round" stroke-linejoin="round"/>
<path d="M753.273 696.947C757.26 682.068 772.53 673.229 787.375 677.207C772.53 673.229 763.725 657.939 767.712 643.061C763.725 657.939 748.456 666.778 733.611 662.801C748.456 666.778 757.26 682.068 753.273 696.947Z" stroke="#222222" stroke-width="5" stroke-linecap="round" stroke-linejoin="round"/>
<path d="M1080.74 690.731C1084.72 675.853 1099.99 667.013 1114.84 670.991C1099.99 667.013 1091.19 651.724 1095.18 636.845C1091.19 651.724 1075.92 660.563 1061.07 656.585C1075.92 660.563 1084.72 675.853 1080.74 690.731V690.731Z" stroke="#222222" stroke-width="5" stroke-linecap="round" stroke-linejoin="round"/>
<path d="M809.029 630.457C785.017 626.183 760.684 621.276 739.206 609.716C717.728 598.156 695.016 579.496 699.123 548.492" stroke="#222222" stroke-width="5" stroke-linecap="round" stroke-linejoin="round"/>
<path d="M1213.58 564.852C1185.36 578.695 1152.44 582.651 1121.78 575.875" stroke="#222222" stroke-width="5" stroke-linecap="round" stroke-linejoin="round"/>
</g>
</g>
</g>
<defs>
<linearGradient id="paint0_linear_36_2645" x1="240.08" y1="651.557" x2="665.322" y2="537.614" gradientUnits="userSpaceOnUse">
<stop stop-color="#01E898"/>
<stop offset="1" stop-color="#13B1E8"/>
</linearGradient>
<linearGradient id="paint1_linear_36_2645" x1="118.16" y1="246.511" x2="223.541" y2="218.274" gradientUnits="userSpaceOnUse">
<stop stop-color="#01E898"/>
<stop offset="1" stop-color="#13B1E8"/>
</linearGradient>
<linearGradient id="paint2_linear_36_2645" x1="1029.59" y1="651.557" x2="604.353" y2="537.614" gradientUnits="userSpaceOnUse">
<stop stop-color="#01E898"/>
<stop offset="1" stop-color="#13B1E8"/>
</linearGradient>
<linearGradient id="paint3_linear_36_2645" x1="1151.51" y1="246.511" x2="1046.13" y2="218.274" gradientUnits="userSpaceOnUse">
<stop stop-color="#01E898"/>
<stop offset="1" stop-color="#13B1E8"/>
</linearGradient>
<clipPath id="clip0_36_2645">
<rect width="537.656" height="632.074" fill="white" transform="translate(-38 222.156) rotate(-15)"/>
</clipPath>
<clipPath id="clip1_36_2645">
<rect width="537.656" height="632.074" fill="white" transform="matrix(-0.965926 -0.258819 -0.258819 0.965926 1307.67 222.156)"/>
</clipPath>
</defs>
</svg>
