<svg width="72" height="72" viewBox="0 0 72 72" fill="none" xmlns="http://www.w3.org/2000/svg">
<path d="M61.9434 8.02271L39.4575 24.7233L43.6157 14.8702L61.9434 8.02271Z" fill="#E2761B" stroke="#E2761B" stroke-linecap="round" stroke-linejoin="round"/>
<path d="M10.034 8.02271L32.3391 24.8815L28.3843 14.8702L10.034 8.02271ZM53.8532 46.7346L47.8645 55.9097L60.6781 59.4351L64.3617 46.938L53.8532 46.7346ZM7.66113 46.938L11.3221 59.4351L24.1357 55.9097L18.147 46.7346L7.66113 46.938Z" fill="#E4761B" stroke="#E4761B" stroke-linecap="round" stroke-linejoin="round"/>
<path d="M23.4124 31.2316L19.8418 36.6327L32.565 37.1977L32.113 23.5254L23.4124 31.2316ZM48.565 31.2316L39.7514 23.3672L39.4576 37.1977L52.1582 36.6327L48.565 31.2316ZM24.1356 55.9096L31.774 52.1807L25.1751 47.0282L24.1356 55.9096ZM40.2034 52.1807L47.8644 55.9096L46.8022 47.0282L40.2034 52.1807Z" fill="#E4761B" stroke="#E4761B" stroke-linecap="round" stroke-linejoin="round"/>
<path d="M47.8646 55.9097L40.2035 52.1809L40.8137 57.1753L40.7459 59.277L47.8646 55.9097ZM24.1357 55.9097L31.2544 59.277L31.2092 57.1753L31.7742 52.1809L24.1357 55.9097Z" fill="#D7C1B3" stroke="#D7C1B3" stroke-linecap="round" stroke-linejoin="round"/>
<path d="M31.367 43.7288L24.9941 41.8531L29.4913 39.7966L31.367 43.7288ZM40.61 43.7288L42.4857 39.7966L47.0054 41.8531L40.61 43.7288Z" fill="#233447" stroke="#233447" stroke-linecap="round" stroke-linejoin="round"/>
<path d="M24.1357 55.9096L25.2204 46.7345L18.147 46.9379L24.1357 55.9096ZM46.7797 46.7345L47.8645 55.9096L53.8532 46.9379L46.7797 46.7345ZM52.1583 36.6328L39.4577 37.1978L40.6328 43.7289L42.5086 39.7967L47.0283 41.8531L52.1583 36.6328ZM24.9944 41.8531L29.5142 39.7967L31.3673 43.7289L32.5651 37.1978L19.8419 36.6328L24.9944 41.8531Z" fill="#CD6116" stroke="#CD6116" stroke-linecap="round" stroke-linejoin="round"/>
<path d="M19.8418 36.6328L25.1751 47.0283L24.9943 41.8531L19.8418 36.6328ZM47.0282 41.8531L46.8022 47.0283L52.1582 36.6328L47.0282 41.8531ZM32.565 37.1978L31.3672 43.7289L32.8587 51.4351L33.1977 41.2882L32.565 37.1978ZM39.4576 37.1978L38.8474 41.2656L39.1186 51.4351L40.6328 43.7289L39.4576 37.1978Z" fill="#E4751F" stroke="#E4751F" stroke-linecap="round" stroke-linejoin="round"/>
<path d="M40.6326 43.7287L39.1184 51.4349L40.2032 52.1807L46.802 47.0282L47.028 41.853L40.6326 43.7287ZM24.9941 41.853L25.1749 47.0282L31.7738 52.1807L32.8585 51.4349L31.367 43.7287L24.9941 41.853Z" fill="#F6851B" stroke="#F6851B" stroke-linecap="round" stroke-linejoin="round"/>
<path d="M40.7459 59.2769L40.8137 57.1752L40.2487 56.678H31.729L31.2092 57.1752L31.2544 59.2769L24.1357 55.9097L26.6216 57.9436L31.6612 61.4464H40.3165L45.3787 57.9436L47.8646 55.9097L40.7459 59.2769Z" fill="#C0AD9E" stroke="#C0AD9E" stroke-linecap="round" stroke-linejoin="round"/>
<path d="M40.2033 52.1808L39.1186 51.4351H32.8587L31.774 52.1808L31.209 57.1752L31.7288 56.678H40.2485L40.8135 57.1752L40.2033 52.1808Z" fill="#161616" stroke="#161616" stroke-linecap="round" stroke-linejoin="round"/>
<path d="M62.8927 25.808L64.8136 16.5877L61.9436 8.02271L40.2035 24.1583L48.565 31.2317L60.3843 34.6894L63.0057 31.6385L61.8758 30.825L63.6837 29.1752L62.2826 28.0905L64.0905 26.712L62.8927 25.808ZM7.18652 16.5877L9.10743 25.808L7.88709 26.712L9.695 28.0905L8.31647 29.1752L10.1244 30.825L8.99443 31.6385L11.5933 34.6894L23.4125 31.2317L31.7741 24.1583L10.034 8.02271L7.18652 16.5877Z" fill="#763D16" stroke="#763D16" stroke-linecap="round" stroke-linejoin="round"/>
<path d="M60.3843 34.6893L48.5651 31.2317L52.1583 36.6328L46.8024 47.0283L53.8532 46.9379H64.3617L60.3843 34.6893ZM23.4125 31.2317L11.5933 34.6893L7.66113 46.9379H18.147L25.1753 47.0283L19.8419 36.6328L23.4125 31.2317ZM39.4577 37.1978L40.2035 24.1583L43.6385 14.8701H28.3843L31.7741 24.1583L32.5651 37.1978L32.8363 41.3108L32.8589 51.4351H39.1188L39.164 41.3108L39.4577 37.1978Z" fill="#F6851B" stroke="#F6851B" stroke-linecap="round" stroke-linejoin="round"/>
</svg>
