<svg width="94" height="31" viewBox="0 0 94 31" fill="none" xmlns="http://www.w3.org/2000/svg">
<g clip-path="url(#clip0_12_1050)">
<path d="M15.6122 2.53228H13.9407V0C6.24971 0 0 6.21561 0 13.8609C0 21.5062 6.24971 27.7219 13.9407 27.7219V30.2663H15.6122C23.2911 30.2663 29.5408 24.0385 29.5408 16.3932C29.5408 8.74789 23.2911 2.53228 15.6122 2.53228ZM15.6122 22.9117H13.9407V20.3794C10.3193 20.3794 7.37611 17.4473 7.37611 13.8488C7.37611 10.2503 10.3193 7.3303 13.9407 7.3303V9.86258H15.6122C19.2215 9.86258 22.1647 12.7947 22.1647 16.3932C22.1647 19.9917 19.2215 22.9117 15.6122 22.9117Z" fill="white"/>
<path d="M43.3264 9.38407C43.3264 9.20004 43.4779 8.08503 41.9954 8.11751C41.5301 8.11751 40.9674 8.07421 40.8375 8.68043C40.7942 8.97271 41.0106 9.11344 41.2163 9.25417C41.6058 9.47067 42.017 9.60058 42.4282 9.70883C43.11 9.89286 45.4799 10.4233 45.3825 11.9172C45.2851 13.2704 43.9108 13.8441 41.8872 13.8333C39.9934 13.8116 38.2728 13.1188 38.2728 11.3326H40.4371C40.3505 12.5884 41.6166 12.5992 41.8439 12.5992C43.3481 12.5992 42.9369 11.6141 42.6014 11.4192C41.0756 10.4666 38.5109 10.9646 38.381 8.74538C38.4243 8.36649 38.5109 8.03091 38.8572 7.6845C39.8419 6.7427 41.6058 6.85095 41.8547 6.85095C45.4691 6.85095 45.4691 8.97271 45.5124 9.38407H43.3156H43.3264Z" fill="white"/>
<path d="M46.14 7.00244H52.8276V8.60459H50.5226V13.6925H48.4449V8.60459H46.1292V7.00244H46.14Z" fill="white"/>
<path d="M56.5611 7.00244H58.7903L62.5886 13.6925H60.1213L59.5045 12.5342H55.8685L55.2408 13.6925H52.7736L56.5719 7.00244H56.5611ZM58.8011 11.2243L57.6865 9.14585L56.5827 11.2243H58.8227H58.8011Z" fill="white"/>
<path d="M62.5236 7.00244H69.2113V8.60459H66.9063V13.6925H64.8286V8.60459H62.5128V7.00244H62.5236Z" fill="white"/>
<path d="M72.3819 13.6925H70.3042V7.00244H72.3819V13.6925Z" fill="white"/>
<path d="M77.3382 6.85083C79.4916 6.85083 81.2231 8.03079 81.2231 10.3366C81.2231 12.6424 79.4916 13.8332 77.3382 13.8332C75.1847 13.8332 73.4641 12.6424 73.4641 10.3366C73.4641 8.01996 75.2064 6.85083 77.3382 6.85083ZM77.3382 12.2202C78.3337 12.2202 79.1454 11.5815 79.1454 10.3474C79.1454 9.11332 78.3337 8.47463 77.3382 8.47463C76.3426 8.47463 75.5526 9.10249 75.5526 10.3474C75.5526 11.5923 76.3534 12.2202 77.3382 12.2202Z" fill="white"/>
<path d="M84.3612 7.00244L88.798 11.8197V7.00244H90.8757V13.6925H88.798L84.3612 9.1675V13.6925H82.2943V7.00244H84.3612Z" fill="white"/>
<path d="M45.1011 16.572V18.1742L41.2487 21.6599H45.1011V23.2621H38.2728V21.6599L42.2226 18.1742H38.2728V16.572H45.1011Z" fill="white"/>
<path d="M52.9143 16.572V18.1742H48.1637V19.2567H51.4425V20.5774H48.1637V21.6599H52.9143V23.2621H46.0859V16.572H52.9143Z" fill="white"/>
<path d="M53.9963 16.572H58.9417C60.0563 16.572 60.9545 17.4597 60.9545 18.5855C60.9545 19.2567 60.6299 19.8521 60.1104 20.2201C60.6407 20.48 60.987 21.032 60.987 21.6924V23.2729H58.8551V21.8872C58.8551 21.1944 58.801 20.8047 57.9894 20.7831H56.074V23.2837H53.9963V16.5937V16.572ZM58.3141 19.3866C58.682 19.3866 58.985 18.9969 58.985 18.618C58.985 18.2391 58.682 17.8494 58.3141 17.8494H56.074V19.3758H58.3141V19.3866Z" fill="white"/>
<path d="M65.5752 16.4204C67.7287 16.4204 69.4601 17.6004 69.4601 19.9062C69.4601 22.2119 67.7287 23.4027 65.5752 23.4027C63.4218 23.4027 61.7012 22.2119 61.7012 19.9062C61.7012 17.5895 63.4434 16.4204 65.5752 16.4204ZM65.5752 21.7898C66.5708 21.7898 67.3824 21.1511 67.3824 19.917C67.3824 18.6829 66.5708 18.0442 65.5752 18.0442C64.5797 18.0442 63.7897 18.6721 63.7897 19.917C63.7897 21.1619 64.5905 21.7898 65.5752 21.7898Z" fill="white"/>
<path d="M70.5315 18.9211H74.1783V20.3934H70.5315V18.9211Z" fill="white"/>
<path d="M77.8143 16.572L79.5241 18.4881L81.2231 16.572H83.7769L80.8227 19.9495L83.7769 23.2729H81.1257L79.5024 21.4326L77.9009 23.2729H75.2496L78.2147 19.9495L75.2496 16.572H77.8143Z" fill="white"/>
</g>
<defs>
<clipPath id="clip0_12_1050">
<rect width="94" height="30.2663" fill="white"/>
</clipPath>
</defs>
</svg>
