<svg width="610" height="518" viewBox="0 0 610 518" fill="none" xmlns="http://www.w3.org/2000/svg">
<g opacity="0.5">
<g clip-path="url(#clip0_12_2060)">
<path d="M429.437 599.77L222.025 473.021C213.758 415.106 205.481 357.184 198.101 299.11C225.798 300.671 252.08 302.153 279.769 303.716L283.64 328.569L429.435 599.762L429.437 599.77Z" fill="#0F0F0F"/>
<path d="M198.104 299.119L222.019 473.031L429.437 599.77L281.527 461.595L198.104 299.119Z" fill="#0E0E0E"/>
<path d="M139.298 359.283C131.882 366.983 122.356 376.918 114.94 384.617C110.701 389.022 106.382 393.519 103.7 399.019C101.017 404.519 100.17 411.275 103.01 416.701C105.626 421.722 110.999 424.852 116.52 426.053C122.042 427.254 127.781 426.78 133.401 426.188C159.523 423.442 187.928 417.764 213.114 410.313L219.097 460.491C196.778 467.842 172.95 469.464 149.46 468.973C135.387 468.684 120.96 467.558 108.185 461.639C95.4104 455.719 84.4574 444.065 82.9382 430.051C81.2969 414.926 90.6682 400.683 101.859 390.416C113.05 380.149 128.916 370.379 139.298 359.283Z" fill="#0F0F0F"/>
<path d="M429.437 599.77L519.41 307.667L449.83 234.489L399.604 334.558L429.437 599.77Z" fill="#0F0F0F"/>
<path d="M449.83 234.49L519.41 307.667L445.946 352.232L449.83 234.49Z" fill="#0E0E0E"/>
<path d="M266.365 80.9702L282.634 328.021L429.437 599.77L381.524 178.53L266.365 80.9702Z" fill="#0F0F0F"/>
<path d="M445.946 352.232L429.437 599.77L519.41 307.667L445.946 352.232Z" fill="#0E0E0E"/>
<path d="M381.524 178.53L368.279 361.38L426.233 571.644L381.524 178.53Z" fill="#0E0E0E"/>
<path d="M266.365 80.9702L282.634 328.021L429.437 599.77L381.524 178.53L266.365 80.9702Z" stroke="#222222" stroke-width="5" stroke-linecap="round" stroke-linejoin="round"/>
<path d="M429.437 599.77L222.025 473.021C213.758 415.106 205.481 357.184 198.101 299.11C225.798 300.671 252.08 302.153 279.769 303.716" stroke="#222222" stroke-width="5" stroke-linecap="round" stroke-linejoin="round"/>
<path d="M222.339 471.935C242.488 468.364 262.645 464.791 281.527 461.595C289.808 433.301 298.869 405.237 308.688 377.445" stroke="#222222" stroke-width="5" stroke-linecap="round" stroke-linejoin="round"/>
<path d="M200.252 301.083C227.024 354.233 253.796 407.383 279.203 458.421C328.365 504.745 380.276 553.445 429.429 599.772" stroke="#222222" stroke-width="5" stroke-linecap="round" stroke-linejoin="round"/>
<path d="M381.523 178.53C377.082 239.903 372.581 300.695 368.271 361.382C339.911 351 310.292 340.138 282.625 328.024" stroke="#222222" stroke-width="5" stroke-linecap="round" stroke-linejoin="round"/>
<path d="M368.279 361.38C392.772 438.72 413.128 516.554 428.301 596.251" stroke="#222222" stroke-width="5" stroke-linecap="round" stroke-linejoin="round"/>
<path d="M516.959 309.809C491.486 323.226 469.266 335.332 445.946 352.232L400.848 334.752" stroke="#222222" stroke-width="5" stroke-linecap="round" stroke-linejoin="round"/>
<path d="M429.437 599.77C438.738 478.713 447.288 358.323 450.419 236.951" stroke="#222222" stroke-width="5" stroke-linecap="round" stroke-linejoin="round"/>
<path d="M395.831 614.672C379.763 614.723 363.698 614.783 347.63 614.835C339.124 614.864 329.248 614.232 324.301 607.288C320.887 602.499 321.005 595.841 323.299 590.428C325.593 585.015 329.739 580.626 334.065 576.645C359.033 553.653 391.652 540.826 424.367 531.858C457.082 522.89 490.744 517.262 522.783 506.129C542.827 499.159 563.586 488.701 572.931 469.613C583.121 448.805 576.062 422.099 559.407 405.988C542.753 389.877 519.521 383.218 496.443 384.823L483.078 428.339C491.118 426.079 520.399 422.065 532.643 439.683C541.534 452.478 537.352 463.213 526.948 474.781C516.544 486.348 501.243 491.942 486.613 497.198C428.878 517.932 374.158 532.805 318.835 559.335C303.559 566.663 283.421 582.807 283.408 601.117C283.395 613.538 291.592 625.113 302.963 630.082C314.334 635.05 327.422 634.417 339.486 631.562C351.549 628.708 363.011 623.773 374.897 620.254L395.829 614.663L395.831 614.672Z" fill="#0F0F0F"/>
<path d="M325.301 438.432C345.178 466.932 363.734 496.358 380.888 526.573" stroke="#222222" stroke-width="5" stroke-linecap="round" stroke-linejoin="round"/>
<path d="M223.78 319.843C238.377 344.898 252.973 369.954 267.568 395.001" stroke="#222222" stroke-width="5" stroke-linecap="round" stroke-linejoin="round"/>
<path d="M308.887 338.986C323.636 364.905 338.379 390.836 353.128 416.755" stroke="#222222" stroke-width="5" stroke-linecap="round" stroke-linejoin="round"/>
<path d="M422.596 201.474C416.872 162.344 411.14 123.216 405.414 84.0769L433.622 37.4102L461.341 80.2527L422.594 201.466L422.596 201.474Z" fill="#0F0F0F"/>
<path d="M399.603 334.558L449.83 234.489L519.409 307.667L457.957 507.179" stroke="#222222" stroke-width="5" stroke-linecap="round" stroke-linejoin="round"/>
<path d="M461.344 80.261C461.344 80.261 441.314 99.8213 432.292 103.979L422.99 196.887L461.338 80.2714L461.344 80.261Z" fill="#0E0E0E"/>
<path d="M249.8 262.522C227.226 257.567 205.218 250.045 184.326 240.14L135.249 100.178L244.259 194.262L249.808 262.52L249.8 262.522Z" fill="#0F0F0F"/>
<path d="M460.212 471.641C469.531 434.983 480.462 398.746 492.95 363.05" stroke="#0F0F0F" stroke-width="5" stroke-linecap="round" stroke-linejoin="round"/>
<path d="M292.035 118.491C320.919 142.056 351.801 166.694 380.683 190.25" stroke="#222222" stroke-width="5" stroke-linecap="round" stroke-linejoin="round"/>
<path d="M341.556 173.781C354.682 182.453 366.31 191.817 379.478 200.478" stroke="#222222" stroke-width="5" stroke-linecap="round" stroke-linejoin="round"/>
<path d="M135.249 100.178L204.316 203.514L244.251 194.264L135.249 100.178Z" fill="#0E0E0E"/>
<path d="M422.596 201.474C416.872 162.344 411.14 123.216 405.414 84.0769L433.622 37.4102L461.341 80.2527L422.594 201.466L422.596 201.474Z" stroke="#222222" stroke-width="5" stroke-linecap="round" stroke-linejoin="round"/>
<path d="M405.79 84.3633C413.938 90.819 422.087 97.2747 432.292 103.979C443.08 98.1969 452.7 90.2494 460.42 80.7373" stroke="#222222" stroke-width="5" stroke-linecap="round" stroke-linejoin="round"/>
<path d="M432.291 103.979C429.569 136.461 425.319 168.737 422.589 201.221" stroke="#222222" stroke-width="5" stroke-linecap="round" stroke-linejoin="round"/>
<path d="M249.8 262.522C227.226 257.567 205.218 250.045 184.326 240.14L135.249 100.178L244.259 194.262L249.808 262.52L249.8 262.522Z" stroke="#222222" stroke-width="5" stroke-linecap="round" stroke-linejoin="round"/>
<path d="M186.415 239.167C191.863 227.398 197.954 215.932 204.316 203.514C217.849 201.857 230.968 197.348 244.253 194.272" stroke="#222222" stroke-width="5" stroke-linecap="round" stroke-linejoin="round"/>
<path d="M138.693 104.396C160.216 137.237 181.739 170.077 203.264 202.926" stroke="#222222" stroke-width="5" stroke-linecap="round" stroke-linejoin="round"/>
<path d="M88.7038 301.724C102.409 300.02 116.64 298.351 129.784 302.607C142.937 306.861 154.698 318.816 154.028 332.644C153.48 344.049 145.091 353.319 137.181 361.529C129.765 369.229 122.341 376.93 114.926 384.63C110.687 389.035 106.368 393.532 103.685 399.031C101.003 404.531 100.156 411.288 102.995 416.714C105.612 421.734 110.984 424.865 116.506 426.066C122.027 427.267 127.766 426.792 133.386 426.2C159.508 423.455 187.914 417.777 213.1 410.325" stroke="#222222" stroke-width="5" stroke-linecap="round" stroke-linejoin="round"/>
<path d="M141.398 357.042C131.014 368.129 113.048 380.141 101.857 390.408C90.6662 400.674 81.2949 414.918 82.9362 430.042C84.4576 444.065 95.4084 455.711 108.183 461.63C120.958 467.549 135.385 468.675 149.458 468.965C172.956 469.453 196.776 467.834 219.095 460.483" stroke="#222222" stroke-width="5" stroke-linecap="round" stroke-linejoin="round"/>
<path d="M162.728 343.777C164.705 351.579 162.126 359.986 157.614 366.644C153.102 373.302 146.819 378.518 140.582 383.582C134.345 388.645 127.984 393.733 123.245 400.232C120.961 403.358 119.022 407.085 119.502 410.938C119.988 414.78 122.488 417.432 127.56 417.154" stroke="#222222" stroke-width="5" stroke-linecap="round" stroke-linejoin="round"/>
<path d="M496.445 384.831C519.529 383.216 542.761 389.875 559.41 405.996C576.064 422.107 583.115 448.816 572.933 469.622C563.588 488.709 542.829 499.167 522.785 506.137C490.738 517.273 457.084 522.898 424.369 531.866C391.654 540.834 359.037 553.669 334.067 576.654C329.75 580.632 325.595 585.023 323.301 590.436C321.008 595.849 320.889 602.507 324.303 607.296C329.25 614.241 339.118 614.875 347.632 614.843C363.7 614.791 379.765 614.731 395.833 614.68C403.322 614.65 412.047 615.239 416.313 621.408C420.163 626.976 418.319 635.046 413.738 640.009C409.16 644.979 402.521 647.461 396.007 649.233C389.496 651.013 380.25 652.963 374.323 656.204" stroke="#222222" stroke-width="5" stroke-linecap="round" stroke-linejoin="round"/>
<path d="M537.818 249.626C533.973 235.277 519.246 226.752 504.929 230.588C519.246 226.752 527.738 212.006 523.893 197.656C527.738 212.006 542.464 220.531 556.781 216.694C542.464 220.531 533.973 235.277 537.818 249.626Z" fill="#0F0F0F"/>
<path d="M483.08 428.347C491.12 426.087 520.401 422.073 532.645 439.691C541.536 452.487 537.354 463.222 526.95 474.789C516.546 486.356 501.245 491.951 486.615 497.206C428.88 517.941 374.16 532.814 318.837 559.344C303.562 566.671 283.423 582.815 283.41 601.125C283.398 613.546 291.594 625.122 302.965 630.09C314.336 635.058 327.424 634.425 339.488 631.57C351.551 628.716 363.014 623.781 374.899 620.263C386.785 616.744 397.102 613.232 409.13 616.267" stroke="#222222" stroke-width="5" stroke-linecap="round" stroke-linejoin="round"/>
<path d="M537.818 249.626C533.973 235.277 519.246 226.752 504.929 230.588C519.246 226.752 527.738 212.006 523.893 197.656C527.738 212.006 542.464 220.531 556.781 216.694C542.464 220.531 533.973 235.277 537.818 249.626Z" stroke="#222222" stroke-width="5" stroke-linecap="round" stroke-linejoin="round"/>
<path d="M480.965 527.986C504.123 523.863 527.59 519.131 548.304 507.982C569.018 496.834 590.923 478.836 586.962 448.936" stroke="#222222" stroke-width="5" stroke-linecap="round" stroke-linejoin="round"/>
<path d="M90.8057 464.713C118.023 478.065 149.77 481.879 179.34 475.345" stroke="#222222" stroke-width="5" stroke-linecap="round" stroke-linejoin="round"/>
</g>
</g>
<defs>
<clipPath id="clip0_12_2060">
<rect width="518.534" height="609.593" fill="white" transform="translate(0.0541992 134.206) rotate(-15)"/>
</clipPath>
</defs>
</svg>
